<?xml version="1.0" encoding="UTF-8" standalone="no"?>
<svg
   viewBox="0 0 790.28056 402.78428"
   width="790.28058"
   height="402.78427"
   version="1.1"
   id="svg30"
   xmlns="http://www.w3.org/2000/svg">
  
  <desc
     id="desc1">logovector.dxf - scale = 1.000000, origin = (0.000000, 0.000000), method = file</desc>
  <defs
     id="defs4">
    <marker
       id="DistanceX"
       orient="auto"
       refX="0"
       refY="0"
       style="overflow:visible">
      <path
         d="M 3,-3 -3,3 M 0,-5 V 5"
         style="stroke:#000000;stroke-width:0.5"
         id="path1" />
    </marker>
    <pattern
       id="Hatch"
       patternUnits="userSpaceOnUse"
       width="8"
       height="8"
       x="0"
       y="0">
      <path
         d="M8 4 l-4,4"
         stroke="#000000"
         stroke-width="0.25"
         linecap="square"
         id="path2" />
      <path
         d="M6 2 l-4,4"
         stroke="#000000"
         stroke-width="0.25"
         linecap="square"
         id="path3" />
      <path
         d="M4 0 l-4,4"
         stroke="#000000"
         stroke-width="0.25"
         linecap="square"
         id="path4" />
    </pattern>
    <symbol
       id="*Model_Space" />
    <symbol
       id="*Paper_Space" />
    <symbol
       id="*Paper_Space0" />
  </defs>
  <g
     id="g4"
     transform="translate(-0.89025236,-718.81335)" />
  <g
     id="g30"
     transform="translate(-0.89025236,-718.81335)">
    <path
       id="path5"
       style="fill:#9b2f1c;fill-opacity:1;stroke:#992600;stroke-width:0.960237;stroke-dasharray:none"
       d="M 132.31376,719.80928 1.7024313,957.18233 H 35.977822 l 96.335938,-175.08008 96.33789,175.08008 h 34.27539 z m 199.55664,0 -91.49414,166.27735 17.13868,31.14648 74.35546,-135.13086 96.33594,175.08008 h 34.27539 z m 165.01758,0 v 237.37305 h 26.70703 V 746.51827 h 21.36524 a 23.085539,23.085539 0 0 1 23.17187,23.08398 19.884916,19.884916 0 0 1 -19.83203,18.43945 l -10.70508,-0.0137 v 31.63086 h 8.17188 a 55.953705,55.953705 0 0 1 9.54687,110.81641 h -17.71875 v 26.70703 h 20.08203 a 83.819381,83.819381 0 0 0 15.81641,-161.2793 24.756966,24.756966 0 0 0 21.34766,-26.30078 49.792815,49.792815 0 0 0 -49.91992,-49.79297 z m 150.23047,0.002 v 237.37304 h 30.67383 V 746.52217 l 35.03516,0.008 a 54.264206,54.264206 0 0 1 -7.0918,108.0039 h -13.97266 l 0.0469,26.70508 h 14.01953 a 80.969966,80.969966 0 0 0 8.67383,-161.41601 z M 314.82939,987.27999 a 7.8403453,7.8403453 0 0 0 -7.29688,7.82226 7.8403453,7.8403453 0 0 0 15.67969,0 7.8403453,7.8403453 0 0 0 -8.38281,-7.82226 z m 31.28125,0.41406 v 30.62695 h 10.95312 v -30.62695 z m 202.10156,0 v 30.62695 h 10.95117 v -30.62695 z m -123.51953,32.33205 a 33.490468,33.490468 0 0 0 -32.93164,21.1934 35.797745,35.797745 0 0 0 60.44531,36.1777 l -6.75195,-6.6582 a 25.691355,25.691355 0 0 1 -45.0293,-20.7617 22.360024,22.360024 0 0 1 44.50391,0 h -36.3086 v 8.4218 h 47.43164 a 33.490468,33.490468 0 0 0 -31.35937,-38.373 z m -296.97852,0.4141 a 33.200389,33.200389 0 0 0 -20.70507,6.7129 v 13.1835 a 22.717394,22.717394 0 0 1 25.24414,-9.789 l 4.20117,-8.7403 a 33.200389,33.200389 0 0 0 -8.74024,-1.3671 z m 580.96289,0 a 33.200389,33.200389 0 0 0 -20.70703,6.7129 v 13.1835 a 22.717394,22.717394 0 0 1 25.26368,-9.789 l 4.18164,-8.7403 a 33.200389,33.200389 0 0 0 -8.73829,-1.3671 z m -673.441405,0.021 a 33.200389,33.200389 0 0 0 -31.6406255,26.8946 33.459231,33.459231 0 0 0 52.6074225,34.959 v -13.8047 a 22.555422,22.555422 0 0 1 -41.822266,-13.877 22.717394,22.717394 0 0 1 41.822266,-14.2929 v -13.1836 a 33.200389,33.200389 0 0 0 -20.966797,-6.6954 z m 139.458985,0 a 33.200389,33.200389 0 0 0 -31.63867,26.8946 33.459231,33.459231 0 0 0 52.60547,34.959 v -13.8047 a 22.555422,22.555422 0 0 1 -41.82227,-13.877 22.717394,22.717394 0 0 1 41.82227,-14.2929 v -13.1836 a 33.200389,33.200389 0 0 0 -20.9668,-6.6954 z m 580.28711,0 a 33.200389,33.200389 0 0 0 -31.6582,26.8946 33.459231,33.459231 0 0 0 52.625,34.959 v -13.8047 a 22.555422,22.555422 0 0 1 -41.8418,-13.877 22.717394,22.717394 0 0 1 41.8418,-14.2929 v -13.1836 a 33.200389,33.200389 0 0 0 -20.9668,-6.6954 z m -251.01172,0.3379 a 34.54038,34.54038 0 0 0 -32.99023,21.211 34.405919,34.405919 0 0 0 57.80273,35.3906 l -6.75195,-6.6582 a 23.814687,23.814687 0 0 1 -41.61719,-20.4805 23.678179,23.678179 0 0 1 41.0918,-12.2265 l 6.99609,-5.834 a 34.54038,34.54038 0 0 0 -24.53125,-11.4024 z m -444.128906,1.1621 v 65.6036 h 11.121093 v -65.6036 z m 32.408203,0 v 65.6036 H 103.3704 v -65.6036 z m 107.050783,0 v 99.1563 h 11.02735 v -99.1563 z m 31.71485,0 v 36.6094 a 29.028466,29.028466 0 1 0 57.98828,0 v -36.6094 h -10.95313 v 36.084 a 18.18473,18.18473 0 1 1 -35.91406,0 v -36.084 z m 78.84375,0 v 65.6036 h 11.02734 v -65.6036 z m 26.18164,0 v 9.3594 h 39.42187 v -9.3594 z m 202.09961,0 v 9.3594 h 39.42187 v -9.3594 z m 56.58203,0 v 36.6094 a 29.028466,29.028466 0 1 0 58.00976,0 v -36.6094 h -10.95312 v 36.084 a 18.18473,18.18473 0 1 1 -35.91602,0 v -36.084 z m 78.50781,0 v 65.6036 h 11.12109 v -65.6036 z m 106.33789,0 v 65.6036 h 11.12305 v -65.6036 z m -433.45703,12.9981 v 32.8008 a 19.40859,19.40859 0 0 0 10.61523,20.0683 23.402063,23.402063 0 0 0 23.03125,-5.3457 l -6.03906,-6.9961 a 10.795292,10.795292 0 0 1 -13.39062,1.6133 14.887333,14.887333 0 0 1 -3.26368,-9.2461 v -32.8945 z m 202.10156,0 v 32.8008 a 19.40859,19.40859 0 0 0 10.5957,20.0683 23.402063,23.402063 0 0 0 23.04883,-5.3457 l -6.03906,-6.9961 a 10.795292,10.795292 0 0 1 -13.4082,1.6133 14.887333,14.887333 0 0 1 -3.2461,-9.2461 v -32.8945 z" />
  </g>
</svg>
